{
  "accessors": [
    {
      "bufferView": 2,
      "componentType": 5126,
      "count": 65532,
      "max": [
        0.3164220452308655,
        0.16489481925964355,
        0.214671790599823
      ],
      "min": [
        -0.4103909730911255,
        -0.16493108868598938,
        -0.20513907074928284
      ],
      "type": "VEC3"
    },
    {
      "bufferView": 2,
      "byteOffset": 786384,
      "componentType": 5126,
      "count": 65532,
      "max": [
        0.9999992251396179,
        0.9999931454658508,
        0.9999995231628418
      ],
      "min": [
        -0.9999417066574097,
        -0.9999931454658508,
        -0.9999691247940063
      ],
      "type": "VEC3"
    },
    {
      "bufferView": 1,
      "componentType": 5126,
      "count": 65532,
      "max": [
        1.0,
        0.9978020191192627
      ],
      "min": [
        0.0,
        0.0014149999478831887
      ],
      "type": "VEC2"
    },
    {
      "bufferView": 0,
      "componentType": 5125,
      "count": 354318,
      "type": "SCALAR"
    },
    {
      "bufferView": 2,
      "byteOffset": 1572768,
      "componentType": 5126,
      "count": 39195,
      "max": [
        0.4103910028934479,
        0.164931058883667,
        0.21466219425201416
      ],
      "min": [
        -0.24033123254776,
        -0.1646943837404251,
        -0.20614150166511536
      ],
      "type": "VEC3"
    },
    {
      "bufferView": 2,
      "byteOffset": 2043108,
      "componentType": 5126,
      "count": 39195,
      "max": [
        0.9998534321784973,
        0.9999889731407166,
        0.9999983310699463
      ],
      "min": [
        -0.9999815821647644,
        -0.9999874234199524,
        -0.9997857809066772
      ],
      "type": "VEC3"
    },
    {
      "bufferView": 1,
      "byteOffset": 524256,
      "componentType": 5126,
      "count": 39195,
      "max": [
        0.9998869895935059,
        0.9976509809494019
      ],
      "min": [
        0.0,
        0.003992999903857708
      ],
      "type": "VEC2"
    },
    {
      "bufferView": 0,
      "byteOffset": 1417272,
      "componentType": 5125,
      "count": 179523,
      "type": "SCALAR"
    },
    {
      "bufferView": 2,
      "byteOffset": 2513448,
      "componentType": 5126,
      "count": 3451,
      "max": [
        0.40865984559059143,
        0.15003928542137146,
        -0.127867192029953
      ],
      "min": [
        -0.41010451316833496,
        -0.15628774464130402,
        -0.214671790599823
      ],
      "type": "VEC3"
    },
    {
      "bufferView": 2,
      "byteOffset": 2554860,
      "componentType": 5126,
      "count": 3451,
      "max": [
        0.9969378709793091,
        0.9967330098152161,
        0.9933235049247742
      ],
      "min": [
        -0.9988192915916443,
        -0.9998460412025452,
        -0.9999901056289673
      ],
      "type": "VEC3"
    },
    {
      "bufferView": 1,
      "byteOffset": 837816,
      "componentType": 5126,
      "count": 3451,
      "max": [
        0.9547724723815918,
        0.7080762386322021
      ],
      "min": [
        -0.04870064929127693,
        -0.10866817831993103
      ],
      "type": "VEC2"
    },
    {
      "bufferView": 0,
      "byteOffset": 2135364,
      "componentType": 5125,
      "count": 18996,
      "type": "SCALAR"
    }
  ],
  "asset": {
    "extras": {
      "author": "CHAMELEONHUM (https://sketchfab.com/CHAMELEONHUM)",
      "license": "CC-BY-4.0 (http://creativecommons.org/licenses/by/4.0/)",
      "source": "https://sketchfab.com/3d-models/adidas-originals-prophere-cq2127-e582295a143041268a737b4ea54556cc",
      "title": "adidas Originals Prophere CQ2127"
    },
    "generator": "Sketchfab-12.65.0",
    "version": "2.0"
  },
  "bufferViews": [
    {
      "buffer": 0,
      "byteLength": 2211348,
      "name": "floatBufferViews",
      "target": 34963
    },
    {
      "buffer": 0,
      "byteLength": 865424,
      "byteOffset": 2211348,
      "byteStride": 8,
      "name": "floatBufferViews",
      "target": 34962
    },
    {
      "buffer": 0,
      "byteLength": 2596272,
      "byteOffset": 3076772,
      "byteStride": 12,
      "name": "floatBufferViews",
      "target": 34962
    }
  ],
  "buffers": [
    {
      "byteLength": 5673044,
      "uri": "scene.bin"
    }
  ],
  "images": [
    {
      "uri": "textures/Material_62_baseColor.jpeg"
    },
    {
      "uri": "textures/Material_74_baseColor.jpeg"
    }
  ],
  "materials": [
    {
      "doubleSided": true,
      "name": "Material_62",
      "pbrMetallicRoughness": {
        "baseColorTexture": {
          "index": 0
        },
        "metallicFactor": 0.0,
        "roughnessFactor": 0.0
      }
    },
    {
      "doubleSided": true,
      "name": "Material_74",
      "pbrMetallicRoughness": {
        "baseColorTexture": {
          "index": 1
        },
        "metallicFactor": 0.0,
        "roughnessFactor": 0.6
      }
    }
  ],
  "meshes": [
    {
      "name": "ADIDAS R_Material #62_0",
      "primitives": [
        {
          "attributes": {
            "NORMAL": 1,
            "POSITION": 0,
            "TEXCOORD_0": 2
          },
          "indices": 3,
          "material": 0,
          "mode": 4
        }
      ]
    },
    {
      "name": "ADIDAS R_Material #62_0",
      "primitives": [
        {
          "attributes": {
            "NORMAL": 5,
            "POSITION": 4,
            "TEXCOORD_0": 6
          },
          "indices": 7,
          "material": 0,
          "mode": 4
        }
      ]
    },
    {
      "name": "ADIDAS R_Material #74_0",
      "primitives": [
        {
          "attributes": {
            "NORMAL": 9,
            "POSITION": 8,
            "TEXCOORD_0": 10
          },
          "indices": 11,
          "material": 1,
          "mode": 4
        }
      ]
    }
  ],
  "nodes": [
    {
      "children": [
        1
      ],
      "matrix": [
        9.943023681640625,
        0.0,
        0.0,
        0.0,
        0.0,
        2.207794765150123e-15,
        -9.943023681640625,
        0.0,
        0.0,
        9.943023681640625,
        2.207794765150123e-15,
        0.0,
        0.0,
        0.0,
        0.0,
        1.0
      ],
      "name": "Sketchfab_model"
    },
    {
      "children": [
        2
      ],
      "matrix": [
        0.029999999329447746,
        0.0,
        0.0,
        0.0,
        0.0,
        0.0,
        0.029999999329447746,
        0.0,
        0.0,
        -0.029999999329447746,
        0.0,
        0.0,
        0.0,
        0.0,
        0.0,
        1.0
      ],
      "name": "adidas Originals Prophere CQ2127.fbx"
    },
    {
      "children": [
        3
      ],
      "name": "RootNode"
    },
    {
      "children": [
        4,
        5,
        6
      ],
      "matrix": [
        0.9999999999999847,
        -3.970466940254533e-23,
        1.7484555314694902e-07,
        0.0,
        1.7484555314694902e-07,
        3.3306690738754696e-16,
        -0.9999999999999847,
        0.0,
        -3.970466940254533e-23,
        1.0,
        3.3306690738754696e-16,
        0.0,
        1.4901156752955558e-08,
        0.0,
        2.2351745343485163e-08,
        1.0
      ],
      "name": "ADIDAS R"
    },
    {
      "mesh": 0,
      "name": "ADIDAS R_Material #62_0"
    },
    {
      "mesh": 1,
      "name": "ADIDAS R_Material #62_0"
    },
    {
      "mesh": 2,
      "name": "ADIDAS R_Material #74_0"
    }
  ],
  "samplers": [
    {
      "magFilter": 9729,
      "minFilter": 9987,
      "wrapS": 10497,
      "wrapT": 10497
    }
  ],
  "scene": 0,
  "scenes": [
    {
      "name": "Sketchfab_Scene",
      "nodes": [
        0
      ]
    }
  ],
  "textures": [
    {
      "sampler": 0,
      "source": 0
    },
    {
      "sampler": 0,
      "source": 1
    }
  ]
}
