{
  "accessors": [
    {
      "bufferView": 2,
      "componentType": 5126,
      "count": 13407,
      "max": [
        0.10579100251197815,
        0.046192001551389694,
        0.11295299977064133
      ],
      "min": [
        -0.12904700636863708,
        -0.0500820018351078,
        0.0004189999890513718
      ],
      "type": "VEC3"
    },
    {
      "bufferView": 2,
      "byteOffset": 160884,
      "componentType": 5126,
      "count": 13407,
      "max": [
        0.9992951154708862,
        0.9999990463256836,
        0.9999402761459351
      ],
      "min": [
        -0.9998866319656372,
        -0.9999833106994629,
        -0.9999855756759644
      ],
      "type": "VEC3"
    },
    {
      "bufferView": 3,
      "componentType": 5126,
      "count": 13407,
      "max": [
        0.99947589635849,
        0.9999490976333618,
        0.9999226927757263,
        1.0
      ],
      "min": [
        -0.9998528957366943,
        -0.9997681975364685,
        -0.9999278783798218,
        -1.0
      ],
      "type": "VEC4"
    },
    {
      "bufferView": 1,
      "componentType": 5126,
      "count": 13407,
      "max": [
        0.9980310201644897,
        0.9990230202674866
      ],
      "min": [
        0.0009769999887794256,
        0.0009769999887794256
      ],
      "type": "VEC2"
    },
    {
      "bufferView": 0,
      "componentType": 5125,
      "count": 74010,
      "type": "SCALAR"
    }
  ],
  "asset": {
    "extras": {
      "author": "inciprocal (https://sketchfab.com/inciprocal.com)",
      "license": "CC-BY-4.0 (http://creativecommons.org/licenses/by/4.0/)",
      "source": "https://sketchfab.com/3d-models/adidas-racer-tr21-bc0d0141da164d3c9f9fe71f6f340c9b",
      "title": "Adidas Racer TR21"
    },
    "generator": "Sketchfab-14.17.0",
    "version": "2.0"
  },
  "bufferViews": [
    {
      "buffer": 0,
      "byteLength": 296040,
      "name": "floatBufferViews",
      "target": 34963
    },
    {
      "buffer": 0,
      "byteLength": 107256,
      "byteOffset": 296040,
      "byteStride": 8,
      "name": "floatBufferViews",
      "target": 34962
    },
    {
      "buffer": 0,
      "byteLength": 321768,
      "byteOffset": 403296,
      "byteStride": 12,
      "name": "floatBufferViews",
      "target": 34962
    },
    {
      "buffer": 0,
      "byteLength": 214512,
      "byteOffset": 725064,
      "byteStride": 16,
      "name": "floatBufferViews",
      "target": 34962
    }
  ],
  "buffers": [
    {
      "byteLength": 939576,
      "uri": "scene.bin"
    }
  ],
  "extensionsRequired": [
    "KHR_materials_pbrSpecularGlossiness"
  ],
  "extensionsUsed": [
    "KHR_materials_pbrSpecularGlossiness"
  ],
  "images": [
    {
      "uri": "textures/sh_adidasLeopardShoe_diffuse.jpeg"
    },
    {
      "uri": "textures/sh_adidasLeopardShoe_specularGlossiness.png"
    },
    {
      "uri": "textures/sh_adidasLeopardShoe_normal.jpeg"
    },
    {
      "uri": "textures/sh_adidasLeopardShoe_occlusion.png"
    }
  ],
  "materials": [
    {
      "doubleSided": true,
      "extensions": {
        "KHR_materials_pbrSpecularGlossiness": {
          "diffuseFactor": [
            1.0,
            1.0,
            1.0,
            1.0
          ],
          "diffuseTexture": {
            "index": 0
          },
          "glossinessFactor": 1.0,
          "specularFactor": [
            0.937,
            0.937,
            0.937
          ],
          "specularGlossinessTexture": {
            "index": 1
          }
        }
      },
      "name": "sh_adidasLeopardShoe",
      "normalTexture": {
        "index": 2
      },
      "occlusionTexture": {
        "index": 3
      }
    }
  ],
  "meshes": [
    {
      "name": "Object_0",
      "primitives": [
        {
          "attributes": {
            "NORMAL": 1,
            "POSITION": 0,
            "TANGENT": 2,
            "TEXCOORD_0": 3
          },
          "indices": 4,
          "material": 0,
          "mode": 4
        }
      ]
    }
  ],
  "nodes": [
    {
      "children": [
        1
      ],
      "matrix": [
        0.7174249887466431,
        0.6966357827186584,
        1.5468421715040447e-16,
        0.0,
        0.0,
        2.220446049250313e-16,
        -1.0,
        0.0,
        -0.6966357827186584,
        0.7174249887466431,
        1.593003481895934e-16,
        0.0,
        0.0,
        0.0,
        0.0,
        1.0
      ],
      "name": "Sketchfab_model"
    },
    {
      "children": [
        2
      ],
      "name": "sh_adidasLeopardShoe.obj.cleaner.materialmerger.gles"
    },
    {
      "mesh": 0,
      "name": "Object_2"
    }
  ],
  "samplers": [
    {
      "magFilter": 9729,
      "minFilter": 9987,
      "wrapS": 10497,
      "wrapT": 10497
    }
  ],
  "scene": 0,
  "scenes": [
    {
      "name": "Sketchfab_Scene",
      "nodes": [
        0
      ]
    }
  ],
  "textures": [
    {
      "sampler": 0,
      "source": 0
    },
    {
      "sampler": 0,
      "source": 1
    },
    {
      "sampler": 0,
      "source": 2
    },
    {
      "sampler": 0,
      "source": 3
    }
  ]
}
