{
  "accessors": [
    {
      "bufferView": 1,
      "componentType": 5126,
      "count": 65532,
      "max": [
        -1.2134414911270142,
        -5.318800926208496,
        -3.675834894180298
      ],
      "min": [
        -1.5224888324737549,
        -5.950610160827637,
        -4.255513668060303
      ],
      "type": "VEC3"
    },
    {
      "bufferView": 1,
      "byteOffset": 786384,
      "componentType": 5126,
      "count": 65532,
      "max": [
        0.9999991059303284,
        0.999830961227417,
        0.9999123215675354
      ],
      "min": [
        -0.9999760389328003,
        -0.9999485611915588,
        -0.9996770024299622
      ],
      "type": "VEC3"
    },
    {
      "bufferView": 2,
      "componentType": 5126,
      "count": 65532,
      "max": [
        0.8627451062202454,
        0.8588235378265381,
        0.9529411792755127,
        1.0
      ],
      "min": [
        0.0117647061124444,
        0.01568627543747425,
        0.0,
        1.0
      ],
      "type": "VEC4"
    },
    {
      "bufferView": 0,
      "componentType": 5125,
      "count": 364470,
      "type": "SCALAR"
    },
    {
      "bufferView": 1,
      "byteOffset": 1572768,
      "componentType": 5126,
      "count": 65532,
      "max": [
        -1.1669867038726807,
        -5.288118362426758,
        -3.6770899295806885
      ],
      "min": [
        -1.5289701223373413,
        -5.879863739013672,
        -4.216629981994629
      ],
      "type": "VEC3"
    },
    {
      "bufferView": 1,
      "byteOffset": 2359152,
      "componentType": 5126,
      "count": 65532,
      "max": [
        0.9999944567680359,
        0.9999567270278931,
        0.99857097864151
      ],
      "min": [
        -0.999999463558197,
        -0.9994286298751831,
        -1.0
      ],
      "type": "VEC3"
    },
    {
      "bufferView": 2,
      "byteOffset": 1048512,
      "componentType": 5126,
      "count": 65532,
      "max": [
        0.95686274766922,
        0.886274516582489,
        0.9607843160629272,
        1.0
      ],
      "min": [
        0.0,
        0.0,
        0.0,
        1.0
      ],
      "type": "VEC4"
    },
    {
      "bufferView": 0,
      "byteOffset": 1457880,
      "componentType": 5125,
      "count": 350172,
      "type": "SCALAR"
    },
    {
      "bufferView": 1,
      "byteOffset": 3145536,
      "componentType": 5126,
      "count": 65532,
      "max": [
        -1.1658382415771484,
        -5.267925262451172,
        -3.682504653930664
      ],
      "min": [
        -1.5257667303085327,
        -5.945215702056885,
        -4.281837463378906
      ],
      "type": "VEC3"
    },
    {
      "bufferView": 1,
      "byteOffset": 3931920,
      "componentType": 5126,
      "count": 65532,
      "max": [
        0.9999841451644897,
        0.9999836087226868,
        0.9992828965187073
      ],
      "min": [
        -0.9999990463256836,
        -0.9997515082359314,
        -0.9999682307243347
      ],
      "type": "VEC3"
    },
    {
      "bufferView": 2,
      "byteOffset": 2097024,
      "componentType": 5126,
      "count": 65532,
      "max": [
        0.9960784316062927,
        0.9137254953384399,
        0.9647058844566345,
        1.0
      ],
      "min": [
        0.0,
        0.0,
        0.0,
        1.0
      ],
      "type": "VEC4"
    },
    {
      "bufferView": 0,
      "byteOffset": 2858568,
      "componentType": 5125,
      "count": 328605,
      "type": "SCALAR"
    },
    {
      "bufferView": 1,
      "byteOffset": 4718304,
      "componentType": 5126,
      "count": 39486,
      "max": [
        -1.1683290004730225,
        -5.267484664916992,
        -3.675834894180298
      ],
      "min": [
        -1.5289106369018555,
        -5.950411796569824,
        -4.281837463378906
      ],
      "type": "VEC3"
    },
    {
      "bufferView": 1,
      "byteOffset": 5192136,
      "componentType": 5126,
      "count": 39486,
      "max": [
        0.9999591708183289,
        0.9999075531959534,
        0.9990490078926086
      ],
      "min": [
        -0.999999463558197,
        -0.9994268417358398,
        -0.9998366832733154
      ],
      "type": "VEC3"
    },
    {
      "bufferView": 2,
      "byteOffset": 3145536,
      "componentType": 5126,
      "count": 39486,
      "max": [
        0.9921568632125854,
        0.9137254953384399,
        0.9647058844566345,
        1.0
      ],
      "min": [
        0.0,
        0.0,
        0.0,
        1.0
      ],
      "type": "VEC4"
    },
    {
      "bufferView": 0,
      "byteOffset": 4172988,
      "componentType": 5125,
      "count": 134691,
      "type": "SCALAR"
    }
  ],
  "asset": {
    "extras": {
      "author": "ryanbair (https://sketchfab.com/ryanbair)",
      "license": "CC-BY-4.0 (http://creativecommons.org/licenses/by/4.0/)",
      "source": "https://sketchfab.com/3d-models/nike-dunk-dusty-olive-metashape-a9acc1e575bd43f683643c824d507bfe",
      "title": "Nike Dunk Dusty Olive Metashape"
    },
    "generator": "Sketchfab-12.68.0",
    "version": "2.0"
  },
  "bufferViews": [
    {
      "buffer": 0,
      "byteLength": 4711752,
      "name": "floatBufferViews",
      "target": 34963
    },
    {
      "buffer": 0,
      "byteLength": 5665968,
      "byteOffset": 4711752,
      "byteStride": 12,
      "name": "floatBufferViews",
      "target": 34962
    },
    {
      "buffer": 0,
      "byteLength": 3777312,
      "byteOffset": 10377720,
      "byteStride": 16,
      "name": "floatBufferViews",
      "target": 34962
    }
  ],
  "buffers": [
    {
      "byteLength": 14155032,
      "uri": "scene.bin"
    }
  ],
  "extensionsUsed": [
    "KHR_materials_unlit"
  ],
  "materials": [
    {
      "doubleSided": true,
      "extensions": {
        "KHR_materials_unlit": {}
      },
      "name": "material0",
      "pbrMetallicRoughness": {
        "baseColorFactor": [
          0.341176,
          0.560784,
          0.878431,
          1.0
        ],
        "metallicFactor": 0.0
      }
    }
  ],
  "meshes": [
    {
      "name": "Model_material0_0",
      "primitives": [
        {
          "attributes": {
            "COLOR_0": 2,
            "NORMAL": 1,
            "POSITION": 0
          },
          "indices": 3,
          "material": 0,
          "mode": 4
        }
      ]
    },
    {
      "name": "Model_material0_0",
      "primitives": [
        {
          "attributes": {
            "COLOR_0": 6,
            "NORMAL": 5,
            "POSITION": 4
          },
          "indices": 7,
          "material": 0,
          "mode": 4
        }
      ]
    },
    {
      "name": "Model_material0_0",
      "primitives": [
        {
          "attributes": {
            "COLOR_0": 10,
            "NORMAL": 9,
            "POSITION": 8
          },
          "indices": 11,
          "material": 0,
          "mode": 4
        }
      ]
    },
    {
      "name": "Model_material0_0",
      "primitives": [
        {
          "attributes": {
            "COLOR_0": 14,
            "NORMAL": 13,
            "POSITION": 12
          },
          "indices": 15,
          "material": 0,
          "mode": 4
        }
      ]
    }
  ],
  "nodes": [
    {
      "children": [
        1
      ],
      "matrix": [
        -0.6519680023193359,
        0.4761986732482909,
        0.5900614857673646,
        0.0,
        0.3047182261943817,
        -0.548039495944977,
        0.7789734005928038,
        0.0,
        0.6943230628967285,
        0.6876682043075562,
        0.21219778060913103,
        0.0,
        -6.696728706359863,
        4.958329200744632,
        -10.028273582458494,
        1.0
      ],
      "name": "Sketchfab_model"
    },
    {
      "children": [
        2
      ],
      "matrix": [
        1.0,
        0.0,
        0.0,
        0.0,
        0.0,
        -1.0,
        0.0,
        0.0,
        0.0,
        0.0,
        -1.0,
        0.0,
        0.0,
        0.0,
        0.0,
        1.0
      ],
      "name": "model.fbx"
    },
    {
      "children": [
        3
      ],
      "name": "RootNode"
    },
    {
      "children": [
        4,
        5,
        6,
        7
      ],
      "name": "Model"
    },
    {
      "mesh": 0,
      "name": "Model_material0_0"
    },
    {
      "mesh": 1,
      "name": "Model_material0_0"
    },
    {
      "mesh": 2,
      "name": "Model_material0_0"
    },
    {
      "mesh": 3,
      "name": "Model_material0_0"
    }
  ],
  "scene": 0,
  "scenes": [
    {
      "name": "Sketchfab_Scene",
      "nodes": [
        0
      ]
    }
  ]
}
