{
    "asset" : {
        "generator" : "Khronos glTF Blender I/O v3.4.50",
        "version" : "2.0"
    },
    "extensionsUsed" : [
        "KHR_materials_unlit"
    ],
    "scene" : 0,
    "scenes" : [
        {
            "name" : "Scene",
            "nodes" : [
                7
            ]
        }
    ],
    "nodes" : [
        {
            "mesh" : 0,
            "name" : "Model_material0_0"
        },
        {
            "mesh" : 1,
            "name" : "Model_material0_0.001"
        },
        {
            "mesh" : 2,
            "name" : "Model_material0_0.002"
        },
        {
            "mesh" : 3,
            "name" : "Model_material0_0.003"
        },
        {
            "children" : [
                0,
                1,
                2,
                3
            ],
            "name" : "Model"
        },
        {
            "children" : [
                4
            ],
            "name" : "RootNode"
        },
        {
            "children" : [
                5
            ],
            "name" : "model.fbx",
            "rotation" : [
                -1,
                0,
                0,
                3.725290742551124e-09
            ]
        },
        {
            "children" : [
                6
            ],
            "name" : "Sketchfab_model",
            "rotation" : [
                0.41348326206207275,
                0.4721575081348419,
                0.7765637636184692,
                0.05520489066839218
            ]
        }
    ],
    "materials" : [
        {
            "doubleSided" : true,
            "extensions" : {
                "KHR_materials_unlit" : {}
            },
            "name" : "material0.004",
            "pbrMetallicRoughness" : {
                "baseColorFactor" : [
                    0.34117600321769714,
                    0.5607839822769165,
                    0.8784310221672058,
                    1
                ],
                "metallicFactor" : 0,
                "roughnessFactor" : 0.9
            }
        }
    ],
    "meshes" : [
        {
            "name" : "Model_material0_0.016",
            "primitives" : [
                {
                    "attributes" : {
                        "COLOR_0" : 0,
                        "POSITION" : 1,
                        "NORMAL" : 2
                    },
                    "indices" : 3,
                    "material" : 0
                }
            ]
        },
        {
            "name" : "Model_material0_0.017",
            "primitives" : [
                {
                    "attributes" : {
                        "COLOR_0" : 4,
                        "POSITION" : 5,
                        "NORMAL" : 6
                    },
                    "indices" : 7,
                    "material" : 0
                }
            ]
        },
        {
            "name" : "Model_material0_0.018",
            "primitives" : [
                {
                    "attributes" : {
                        "COLOR_0" : 8,
                        "POSITION" : 9,
                        "NORMAL" : 10
                    },
                    "indices" : 11,
                    "material" : 0
                }
            ]
        },
        {
            "name" : "Model_material0_0.019",
            "primitives" : [
                {
                    "attributes" : {
                        "COLOR_0" : 12,
                        "POSITION" : 13,
                        "NORMAL" : 14
                    },
                    "indices" : 15,
                    "material" : 0
                }
            ]
        }
    ],
    "accessors" : [
        {
            "bufferView" : 0,
            "componentType" : 5123,
            "count" : 65729,
            "normalized" : true,
            "type" : "VEC4"
        },
        {
            "bufferView" : 1,
            "componentType" : 5126,
            "count" : 65729,
            "max" : [
                0.15452373027801514,
                0.3159046173095703,
                0.289839506149292
            ],
            "min" : [
                -0.15452361106872559,
                -0.3159046173095703,
                -0.2898392677307129
            ],
            "type" : "VEC3"
        },
        {
            "bufferView" : 2,
            "componentType" : 5126,
            "count" : 65729,
            "type" : "VEC3"
        },
        {
            "bufferView" : 3,
            "componentType" : 5125,
            "count" : 364470,
            "type" : "SCALAR"
        },
        {
            "bufferView" : 4,
            "componentType" : 5123,
            "count" : 65793,
            "normalized" : true,
            "type" : "VEC4"
        },
        {
            "bufferView" : 5,
            "componentType" : 5126,
            "count" : 65793,
            "max" : [
                0.18099164962768555,
                0.29587268829345703,
                0.26976990699768066
            ],
            "min" : [
                -0.1809917688369751,
                -0.29587268829345703,
                -0.26977014541625977
            ],
            "type" : "VEC3"
        },
        {
            "bufferView" : 6,
            "componentType" : 5126,
            "count" : 65793,
            "type" : "VEC3"
        },
        {
            "bufferView" : 7,
            "componentType" : 5125,
            "count" : 350172,
            "type" : "SCALAR"
        },
        {
            "bufferView" : 8,
            "componentType" : 5123,
            "count" : 65862,
            "normalized" : true,
            "type" : "VEC4"
        },
        {
            "bufferView" : 9,
            "componentType" : 5126,
            "count" : 65862,
            "max" : [
                0.17996430397033691,
                0.33864498138427734,
                0.2996664047241211
            ],
            "min" : [
                -0.17996418476104736,
                -0.33864545822143555,
                -0.2996664047241211
            ],
            "type" : "VEC3"
        },
        {
            "bufferView" : 10,
            "componentType" : 5126,
            "count" : 65862,
            "type" : "VEC3"
        },
        {
            "bufferView" : 11,
            "componentType" : 5125,
            "count" : 328605,
            "type" : "SCALAR"
        },
        {
            "bufferView" : 12,
            "componentType" : 5123,
            "count" : 39945,
            "normalized" : true,
            "type" : "VEC4"
        },
        {
            "bufferView" : 13,
            "componentType" : 5126,
            "count" : 39945,
            "max" : [
                0.1802908182144165,
                0.341463565826416,
                0.30300116539001465
            ],
            "min" : [
                -0.1802908182144165,
                -0.341463565826416,
                -0.30300140380859375
            ],
            "type" : "VEC3"
        },
        {
            "bufferView" : 14,
            "componentType" : 5126,
            "count" : 39945,
            "type" : "VEC3"
        },
        {
            "bufferView" : 15,
            "componentType" : 5123,
            "count" : 134691,
            "type" : "SCALAR"
        }
    ],
    "bufferViews" : [
        {
            "buffer" : 0,
            "byteLength" : 525832,
            "byteOffset" : 0,
            "target" : 34962
        },
        {
            "buffer" : 0,
            "byteLength" : 788748,
            "byteOffset" : 525832,
            "target" : 34962
        },
        {
            "buffer" : 0,
            "byteLength" : 788748,
            "byteOffset" : 1314580,
            "target" : 34962
        },
        {
            "buffer" : 0,
            "byteLength" : 1457880,
            "byteOffset" : 2103328,
            "target" : 34963
        },
        {
            "buffer" : 0,
            "byteLength" : 526344,
            "byteOffset" : 3561208,
            "target" : 34962
        },
        {
            "buffer" : 0,
            "byteLength" : 789516,
            "byteOffset" : 4087552,
            "target" : 34962
        },
        {
            "buffer" : 0,
            "byteLength" : 789516,
            "byteOffset" : 4877068,
            "target" : 34962
        },
        {
            "buffer" : 0,
            "byteLength" : 1400688,
            "byteOffset" : 5666584,
            "target" : 34963
        },
        {
            "buffer" : 0,
            "byteLength" : 526896,
            "byteOffset" : 7067272,
            "target" : 34962
        },
        {
            "buffer" : 0,
            "byteLength" : 790344,
            "byteOffset" : 7594168,
            "target" : 34962
        },
        {
            "buffer" : 0,
            "byteLength" : 790344,
            "byteOffset" : 8384512,
            "target" : 34962
        },
        {
            "buffer" : 0,
            "byteLength" : 1314420,
            "byteOffset" : 9174856,
            "target" : 34963
        },
        {
            "buffer" : 0,
            "byteLength" : 319560,
            "byteOffset" : 10489276,
            "target" : 34962
        },
        {
            "buffer" : 0,
            "byteLength" : 479340,
            "byteOffset" : 10808836,
            "target" : 34962
        },
        {
            "buffer" : 0,
            "byteLength" : 479340,
            "byteOffset" : 11288176,
            "target" : 34962
        },
        {
            "buffer" : 0,
            "byteLength" : 269382,
            "byteOffset" : 11767516,
            "target" : 34963
        }
    ],
    "buffers" : [
        {
            "byteLength" : 12036900,
            "uri" : "scene2.bin"
        }
    ]
}
